HIERARCHY
ROOT Pelvis
{
	OFFSET 0.000000 0.000000 0.000000
	CHANNELS 6 Xposition Yposition Zposition Zrotation Yrotation Xrotation 
	JOINT Left_hip
	{
		OFFSET 0.069463 -0.088608 -0.009542
		CHANNELS 3 Zrotation Yrotation Xrotation
		JOINT Left_knee
		{
			OFFSET 0.030639 -0.359740 -0.005288
			CHANNELS 3 Zrotation Yrotation Xrotation
			JOINT Left_ankle
			{
				OFFSET -0.011068 -0.376034 -0.042462
				CHANNELS 3 Zrotation Yrotation Xrotation
				JOINT Left_foot
				{
					OFFSET 0.023192 -0.053321 0.111332
					CHANNELS 3 Zrotation Yrotation Xrotation
					End Site
					{
						OFFSET 0.000000 0.000000 0.000000
					}
				}
			}
		}
	}
	JOINT Right_hip
	{
		OFFSET -0.067438 -0.088025 -0.006263
		CHANNELS 3 Zrotation Yrotation Xrotation
		JOINT Right_knee
		{
			OFFSET -0.035962 -0.366229 -0.008063
			CHANNELS 3 Zrotation Yrotation Xrotation
			JOINT Right_ankle
			{
				OFFSET 0.013608 -0.375719 -0.040481
				CHANNELS 3 Zrotation Yrotation Xrotation
				JOINT Right_foot
				{
					OFFSET -0.021034 -0.045527 0.114617
					CHANNELS 3 Zrotation Yrotation Xrotation
					End Site
					{
						OFFSET 0.000000 0.000000 0.000000
					}
				}
			}
		}
	}
	JOINT Spine1
	{
		OFFSET -0.002610 0.101823 -0.019986
		CHANNELS 3 Zrotation Yrotation Xrotation
		JOINT Spine2
		{
			OFFSET 0.004114 0.128714 -0.000938
			CHANNELS 3 Zrotation Yrotation Xrotation
			JOINT Spine3
			{
				OFFSET 0.002191 0.048470 0.027684
				CHANNELS 3 Zrotation Yrotation Xrotation
				JOINT Neck
				{
					OFFSET -0.002856 0.198873 -0.044022
					CHANNELS 3 Zrotation Yrotation Xrotation
					JOINT Head
					{
						OFFSET 0.002981 0.062960 0.049860
						CHANNELS 3 Zrotation Yrotation Xrotation
						End Site
						{
							OFFSET 0.000000 0.000000 0.000000
						}
					}
				}
				JOINT Left_collar
				{
					OFFSET 0.073708 0.112550 -0.033440
					CHANNELS 3 Zrotation Yrotation Xrotation
					JOINT Left_shoulder
					{
						OFFSET 0.083291 0.030786 -0.008013
						CHANNELS 3 Zrotation Yrotation Xrotation
						JOINT Left_elbow
						{
							OFFSET 0.245601 -0.011792 -0.027873
							CHANNELS 3 Zrotation Yrotation Xrotation
							JOINT Left_wrist
							{
								OFFSET 0.232258 0.008622 -0.000487
								CHANNELS 3 Zrotation Yrotation Xrotation
								JOINT Left_palm
								{
									OFFSET 0.077300 -0.009457 -0.012851
									CHANNELS 3 Zrotation Yrotation Xrotation
									End Site
									{
										OFFSET 0.000000 0.000000 0.000000
									}
								}
							}
						}
					}
				}
				JOINT Right_collar
				{
					OFFSET -0.075339 0.110574 -0.037874
					CHANNELS 3 Zrotation Yrotation Xrotation
					JOINT Right_shoulder
					{
						OFFSET -0.086522 0.031207 -0.009986
						CHANNELS 3 Zrotation Yrotation Xrotation
						JOINT Right_elbow
						{
							OFFSET -0.237313 -0.011478 -0.019859
							CHANNELS 3 Zrotation Yrotation Xrotation
							JOINT Right_wrist
							{
								OFFSET -0.237599 0.007976 -0.003742
								CHANNELS 3 Zrotation Yrotation Xrotation
								JOINT Right_palm
								{
									OFFSET -0.076920 -0.006943 -0.009920
									CHANNELS 3 Zrotation Yrotation Xrotation
									End Site
									{
										OFFSET 0.000000 0.000000 0.000000
									}
								}
							}
						}
					}
				}
			}
		}
	}
}
MOTION
Frames: 5
Frame Time: 0.100000
0.000000 0.000000 0.000000 176.325780 28.205722 -24.848151 2.290976 5.074177 17.762958 0.842274 -9.715367 -1.668752 4.908773 6.405509 -5.477990 -8.928515 8.905935 -2.417357 -2.372555 -6.914437 21.747477 -1.105124 -1.468230 -1.853012 -6.939473 -9.594531 -8.375398 12.280223 -2.856143 9.610942 0.751371 0.963127 5.004526 -0.023827 -4.005575 6.535785 -0.411583 -2.983389 -0.694297 -0.756979 -11.830547 9.872219 -2.026948 -12.081150 2.258005 -31.085261 0.497465 6.867227 -51.327374 -6.985135 6.874013 2.556252 -17.284347 13.719863 -13.046742 3.571400 -4.240615 -7.009014 -3.065462 -8.148760 31.605973 4.988823 4.785268 53.355401 2.991864 11.209525 -6.102801 14.078040 -1.114576 8.530319 -3.903943 -2.508316 10.111405 8.196557 -3.023447 
0.000475 0.000142 -0.001712 176.322486 27.940847 -24.777898 2.364003 5.135928 17.642963 0.775727 -9.643179 -1.727337 4.845499 6.425356 -5.450348 -8.881159 8.902918 -2.405841 -2.312701 -6.873505 21.461249 -1.136915 -1.418111 -1.739070 -6.843333 -9.413069 -8.373297 12.240147 -3.029055 9.440636 0.732403 0.947701 5.272717 0.000738 -3.994860 6.552120 -0.356232 -3.005101 -0.638585 -0.629268 -11.936552 9.589112 -1.773717 -12.188732 1.825218 -31.046362 0.575822 6.807618 -51.619043 -6.972059 6.850122 2.933552 -17.095880 13.398004 -12.628525 3.625818 -4.299225 -6.933955 -3.033833 -8.145208 31.485853 4.883463 4.684520 53.583839 2.907855 11.135763 -6.353456 13.932904 -1.340477 8.281733 -3.922742 -2.650846 10.055920 8.160385 -3.023862 
0.001224 0.000314 -0.003669 176.283280 27.714838 -24.709460 2.357832 5.076468 17.412680 0.785629 -9.492900 -1.676840 4.861019 6.471827 -5.405293 -8.831983 8.975035 -2.415754 -2.248825 -6.824113 21.228773 -1.097882 -1.440603 -1.762664 -6.860002 -9.264102 -8.278592 12.246914 -3.129711 9.483918 0.721659 0.932018 5.444843 0.023012 -3.997407 6.603136 -0.326712 -3.015957 -0.641687 -0.487244 -12.150789 9.591328 -1.607554 -12.342586 1.760502 -31.236092 0.669119 6.832248 -52.071475 -7.088552 6.789666 3.172533 -17.017413 12.706486 -12.811108 3.616225 -4.907188 -6.829249 -3.018207 -8.028185 31.562186 4.903737 4.678472 53.820769 3.127064 11.053890 -6.669320 13.797274 -1.897348 8.262526 -3.965350 -2.999861 10.003844 8.143560 -2.966226 
0.001709 0.000134 -0.005801 176.131038 27.627516 -24.812629 2.479077 5.090864 17.153901 0.736954 -9.437496 -1.412331 4.917822 6.465030 -5.330542 -8.889201 9.065063 -2.397646 -2.303854 -6.891196 21.154629 -0.882027 -1.415431 -1.803155 -6.833497 -9.006305 -8.092809 12.262784 -3.123451 9.515912 0.774188 0.950610 5.651582 0.028847 -4.086261 6.794386 -0.290690 -3.010796 -0.622603 -0.489821 -12.322843 9.680649 -1.362896 -12.453243 1.578185 -31.180447 0.277471 6.873604 -51.855002 -7.180143 6.680221 3.103976 -16.649917 12.685614 -12.902731 3.841532 -4.590700 -6.954491 -3.054584 -8.160252 31.386714 5.220247 4.799122 53.778740 3.169036 11.164021 -6.435015 14.315721 -1.233832 8.363683 -3.961701 -2.645515 10.136523 8.218467 -3.038698 
0.000659 0.000236 -0.008443 176.014737 27.087067 -24.870061 2.507718 4.969435 16.743811 0.640887 -9.065062 -0.778291 5.329963 6.715942 -5.489458 -9.264298 9.117416 -2.227199 -2.424908 -6.905161 21.182061 -0.634407 -1.147022 -2.212322 -6.961461 -8.469534 -7.812169 12.575415 -3.294470 9.836151 0.830309 1.073840 5.805034 0.100473 -4.131954 6.918279 -0.258976 -2.930523 -0.700165 -0.464782 -12.873434 9.997616 -1.083504 -12.772116 1.482058 -31.212966 0.036424 7.037866 -51.610511 -7.195646 6.519201 2.353227 -16.432824 12.450439 -14.025824 3.618259 -5.332984 -7.081319 -3.069891 -8.099456 31.271955 5.526642 5.076481 53.377342 3.391705 10.973532 -6.286734 14.150789 -1.248385 8.718197 -4.057114 -2.863236 10.309874 8.323035 -3.119073 
